<svg width="491" height="90" viewBox="0 0 491 90" fill="none" xmlns="http://www.w3.org/2000/svg">
<g clip-path="url(#clip0_103_50)">
<path d="M122.775 49.322C133.644 49.322 138.475 43.6653 138.475 32.161C138.475 20.7203 133.644 15 122.775 15H113.178C111.398 15 110 16.3983 110 18.178V71.7585C110 73.5381 111.398 75 113.178 75H115.657C117.373 75 118.771 73.5381 118.771 71.7585V49.322H122.775ZM122.775 23.8347C127.606 23.8347 129.576 26.1864 129.576 32.161C129.576 37.9449 127.606 40.5508 122.775 40.5508H118.771V23.8347H122.775ZM158.369 72.4576C158.75 73.7924 160.148 75 161.483 75H164.089C166.25 75 167.648 73.0932 167.203 71.0593L154.936 17.4788C154.682 16.1441 153.157 15 151.822 15H149.852C148.517 15 147.119 16.1441 146.737 17.4788L138.665 52.3093L134.343 71.1229C133.898 73.2203 135.36 75 137.458 75H140.064C141.398 75 142.797 73.7924 143.178 72.4576L146.292 58.6017H155.381L158.369 72.4576ZM150.805 35.5297C152.521 43.0932 152.331 45.5085 153.347 49.767H148.326L150.805 35.5297ZM196.314 75C198.093 75 199.492 73.5381 199.492 71.7585V18.178C199.492 16.3983 198.093 15 196.314 15H193.835C192.055 15 190.593 16.3983 190.593 18.178V47.5424L178.263 16.9703C177.881 15.9534 176.483 15 175.275 15H173.178C171.462 15 169.936 16.3983 169.936 18.178V71.7585C169.936 73.5381 171.462 75 173.178 75H175.72C177.436 75 178.962 73.5381 178.962 71.7585V42.3941L191.292 73.0297C191.674 73.9831 193.199 75 194.28 75H196.314ZM215.064 18.178C215.064 16.3983 213.538 15 211.886 15H209.407C207.627 15 206.165 16.3983 206.165 18.178V71.7585C206.165 73.5381 207.627 75 209.407 75H211.886C213.538 75 215.064 73.5381 215.064 71.7585V18.178ZM220.975 57.5212C220.975 64.5763 222.881 68.6441 225.678 71.4407C228.602 74.2373 232.225 75 235.657 75C238.835 75 242.585 74.2373 245.508 71.4407C248.242 68.6441 250.148 64.5763 250.148 57.5212V56.3136C250.148 54.5339 248.686 53.072 247.034 53.072H244.428C242.648 53.072 241.25 54.5339 241.25 56.3136V57.5212C241.25 60.7627 240.805 63.1144 239.725 64.5763C238.898 65.4661 237.309 66.1653 235.657 66.1653C231.78 66.1653 229.936 63.4958 229.936 57.5212V32.3517C229.936 26.3771 231.907 23.8347 235.657 23.8347C239.28 23.8347 241.25 26.3771 241.25 32.3517V33.6229C241.25 35.4025 242.648 36.8008 244.428 36.8008H247.034C248.686 36.8008 250.148 35.4025 250.148 33.6229V32.3517C250.148 25.6144 248.242 21.1653 245.445 18.4958C242.458 15.8263 238.898 15 235.657 15C232.225 15 228.665 15.8263 225.742 18.4958C222.881 21.1653 220.975 25.6144 220.975 32.3517V57.5212ZM277.733 15C275.953 15 274.492 16.3983 274.492 18.178V71.7585C274.492 73.5381 275.953 75 277.733 75H280.212C281.928 75 283.39 73.5381 283.39 71.7585V49.322H293.369C295.148 49.322 296.61 47.9237 296.61 46.1441V43.7288C296.61 41.9492 295.148 40.5508 293.369 40.5508H283.39V23.8347H296.928C298.708 23.8347 300.17 22.3729 300.17 20.5932V18.178C300.17 16.3983 298.708 15 296.928 15H277.733ZM315.297 18.178C315.297 16.3983 313.771 15 312.055 15H309.576C307.797 15 306.398 16.3983 306.398 18.178V71.7585C306.398 73.5381 307.797 75 309.576 75H312.055C313.771 75 315.297 73.5381 315.297 71.7585V18.178ZM347.585 75C349.364 75 350.763 73.5381 350.763 71.7585V18.178C350.763 16.3983 349.364 15 347.585 15H345.106C343.326 15 341.864 16.3983 341.864 18.178V47.5424L329.534 16.9703C329.153 15.9534 327.754 15 326.547 15H324.449C322.733 15 321.208 16.3983 321.208 18.178V71.7585C321.208 73.5381 322.733 75 324.449 75H326.992C328.708 75 330.233 73.5381 330.233 71.7585V42.3941L342.564 73.0297C342.945 73.9831 344.47 75 345.551 75H347.585ZM382.034 72.4576C382.352 73.7924 383.814 75 385.148 75H387.691C389.852 75 391.25 73.0932 390.805 71.0593L378.538 17.4788C378.284 16.1441 376.759 15 375.424 15H373.453C372.119 15 370.72 16.1441 370.339 17.4788L362.267 52.3093L358.008 71.1229C357.564 73.2203 358.962 75 361.123 75H363.665C365 75 366.462 73.7924 366.78 72.4576L369.894 58.6017H378.983L382.034 72.4576ZM374.47 35.5297C376.123 43.0932 375.932 45.5085 376.949 49.767H371.928L374.47 35.5297ZM419.915 75C421.695 75 423.093 73.5381 423.093 71.7585V18.178C423.093 16.3983 421.695 15 419.915 15H417.436C415.657 15 414.195 16.3983 414.195 18.178V47.5424L401.864 16.9703C401.483 15.9534 400.085 15 398.941 15H396.78C395.064 15 393.602 16.3983 393.602 18.178V71.7585C393.602 73.5381 395.064 75 396.78 75H399.386C401.038 75 402.564 73.5381 402.564 71.7585V42.3941L414.958 73.0297C415.275 73.9831 416.801 75 417.881 75H419.915ZM429.958 57.5212C429.958 64.5763 431.928 68.6441 434.661 71.4407C437.648 74.2373 441.271 75 444.64 75C447.881 75 451.568 74.2373 454.555 71.4407C457.288 68.6441 459.131 64.5763 459.131 57.5212V56.3136C459.131 54.5339 457.733 53.072 456.017 53.072H453.475C451.695 53.072 450.233 54.5339 450.233 56.3136V57.5212C450.233 60.7627 449.788 63.1144 448.771 64.5763C447.945 65.4661 446.356 66.1653 444.64 66.1653C440.826 66.1653 438.983 63.4958 438.983 57.5212V32.3517C438.983 26.3771 440.89 23.8347 444.64 23.8347C448.326 23.8347 450.233 26.3771 450.233 32.3517V33.6229C450.233 35.4025 451.695 36.8008 453.475 36.8008H456.017C457.733 36.8008 459.131 35.4025 459.131 33.6229V32.3517C459.131 25.6144 457.288 21.1653 454.428 18.4958C451.504 15.8263 447.945 15 444.64 15C441.271 15 437.712 15.8263 434.788 18.4958C431.928 21.1653 429.958 25.6144 429.958 32.3517V57.5212ZM468.347 15C466.568 15 465.106 16.3983 465.106 18.178V71.7585C465.106 73.5381 466.568 75 468.347 75H487.542C489.322 75 490.72 73.5381 490.72 71.7585V69.3432C490.72 67.5636 489.322 66.1653 487.542 66.1653H473.941V49.322H485.127C486.907 49.322 488.369 47.9237 488.369 46.1441V43.7288C488.369 41.9492 486.907 40.5508 485.127 40.5508H473.941V23.8347H487.542C489.322 23.8347 490.72 22.3729 490.72 20.5932V18.178C490.72 16.3983 489.322 15 487.542 15H468.347Z" fill="black"/>
<path d="M45 67.7447C57.5289 67.7447 67.6856 57.588 67.6856 45.0591C67.6856 32.5301 57.5289 22.3734 45 22.3734C32.4711 22.3734 22.3144 32.5301 22.3144 45.0591C22.3144 57.588 32.4711 67.7447 45 67.7447Z" fill="black"/>
<path d="M90 0H0V90H90V0ZM45 73.3669C29.3878 73.3669 16.6894 60.6656 16.6894 45.0591C16.6894 29.4497 29.3906 16.7484 45 16.7484C60.6094 16.7484 73.3078 29.4497 73.3078 45.0591C73.3106 60.6684 60.6094 73.3669 45 73.3669Z" fill="black"/>
</g>
<defs>
<clipPath id="clip0_103_50">
<rect width="491" height="90" fill="white"/>
</clipPath>
</defs>
</svg>
