<svg width="28" height="28" viewBox="0 0 28 28" fill="none" xmlns="http://www.w3.org/2000/svg">
<path fill-rule="evenodd" clip-rule="evenodd" d="M14 9.49999C11.5147 9.49999 9.49999 11.5147 9.49999 14C9.49999 16.4853 11.5147 18.5 14 18.5C16.4853 18.5 18.5 16.4853 18.5 14C18.5 11.5147 16.4853 9.49999 14 9.49999ZM11.5 14C11.5 12.6193 12.6193 11.5 14 11.5C15.3807 11.5 16.5 12.6193 16.5 14C16.5 15.3807 15.3807 16.5 14 16.5C12.6193 16.5 11.5 15.3807 11.5 14Z" fill="#898989"/>
<path fill-rule="evenodd" clip-rule="evenodd" d="M13.141 1.49998C12.9348 1.4999 12.682 1.4998 12.4567 1.51706C12.1906 1.53746 11.8217 1.58933 11.426 1.76934C10.9259 1.99686 10.4979 2.35733 10.1887 2.81144C9.94406 3.17072 9.83022 3.52547 9.76487 3.78427C9.70956 4.00331 9.66668 4.25245 9.63171 4.45565L9.40178 5.78842C9.26802 5.85946 9.13618 5.9335 9.00636 6.01046L7.56506 5.48883C7.37499 5.41996 7.14127 5.33527 6.92701 5.2756C6.67339 5.20498 6.31513 5.12907 5.88892 5.16043C5.34917 5.20015 4.83021 5.38515 4.38705 5.69581C4.0371 5.94112 3.80765 6.22654 3.65589 6.44167C3.52769 6.62342 3.40024 6.83685 3.2966 7.01042L2.48414 8.36983C2.37443 8.55325 2.24062 8.77692 2.13732 8.98506C2.01571 9.2301 1.86714 9.58453 1.8223 10.0305C1.76584 10.592 1.86893 11.1581 2.11972 11.6637C2.31888 12.0652 2.58285 12.3445 2.78304 12.531C2.95308 12.6893 3.15714 12.8515 3.32448 12.9844L4.393 13.8342C4.39201 13.8894 4.39152 13.9446 4.39152 14C4.39152 14.0554 4.39201 14.1107 4.393 14.1658L3.32454 15.0155C3.1572 15.1485 2.95314 15.3107 2.78309 15.469C2.5829 15.6555 2.31893 15.9348 2.11977 16.3363C1.86898 16.8419 1.76589 17.408 1.82236 17.9695C1.86719 18.4154 2.01576 18.7699 2.13738 19.0149C2.24067 19.223 2.37446 19.4467 2.48417 19.6301L3.29662 20.9895C3.40027 21.1631 3.52773 21.3765 3.65594 21.5583C3.8077 21.7734 4.03715 22.0589 4.3871 22.3042C4.83027 22.6148 5.34922 22.7998 5.88897 22.8396C6.31518 22.8709 6.67344 22.795 6.92706 22.7244C7.14133 22.6647 7.37506 22.58 7.56513 22.5111L9.00637 21.9895C9.1362 22.0665 9.26803 22.1405 9.40178 22.2116L9.6317 23.5443C9.66668 23.7475 9.70956 23.9967 9.76487 24.2157C9.83022 24.4745 9.94406 24.8293 10.1887 25.1885C10.4979 25.6427 10.9259 26.0031 11.426 26.2306C11.8217 26.4107 12.1906 26.4625 12.4567 26.4829C12.682 26.5002 12.9348 26.5001 13.141 26.5H14.859C15.0652 26.5001 15.318 26.5002 15.5433 26.4829C15.8094 26.4625 16.1783 26.4107 16.574 26.2306C17.0741 26.0031 17.502 25.6427 17.8113 25.1885C18.0559 24.8293 18.1698 24.4745 18.2351 24.2157C18.2904 23.9967 18.3333 23.7475 18.3683 23.5443L18.5982 22.2116C18.732 22.1405 18.8638 22.0665 18.9936 21.9895L20.4349 22.5112C20.625 22.58 20.8587 22.6647 21.0729 22.7244C21.3265 22.795 21.6848 22.8709 22.111 22.8396C22.6508 22.7998 23.1697 22.6149 23.6129 22.3042C23.9628 22.0589 24.1923 21.7735 24.344 21.5583C24.4722 21.3766 24.5996 21.1633 24.7033 20.9897L25.5158 19.6302C25.6255 19.4468 25.7593 19.2231 25.8626 19.0149C25.9842 18.7699 26.1328 18.4155 26.1776 17.9695C26.2341 17.408 26.131 16.8419 25.8802 16.3363C25.6811 15.9348 25.4171 15.6555 25.2169 15.469C25.0469 15.3107 24.8428 15.1485 24.6755 15.0156L23.607 14.1659C23.608 14.1107 23.6085 14.0554 23.6085 14C23.6085 13.9446 23.608 13.8893 23.607 13.8342L24.6755 12.9844C24.8428 12.8515 25.0469 12.6893 25.2169 12.5309C25.4171 12.3445 25.6811 12.0652 25.8803 11.6637C26.1311 11.1581 26.2341 10.592 26.1777 10.0305C26.1328 9.58452 25.9843 9.23008 25.8627 8.98504C25.7594 8.77693 25.6256 8.55329 25.5159 8.36989L24.7034 7.01045C24.5998 6.83688 24.4723 6.6234 24.3441 6.44166C24.1923 6.22652 23.9629 5.94111 23.6129 5.6958C23.1698 5.38513 22.6508 5.20014 22.1111 5.16042C21.6849 5.12905 21.3266 5.20496 21.073 5.27559C20.8587 5.33525 20.625 5.41993 20.435 5.4888L18.9936 6.01045C18.8638 5.93349 18.732 5.85945 18.5982 5.78842L18.3683 4.45567C18.3333 4.25246 18.2904 4.00331 18.2351 3.78427C18.1698 3.52547 18.0559 3.17072 17.8113 2.81144C17.502 2.35733 17.0741 1.99686 16.574 1.76934C16.1783 1.58933 15.8094 1.53746 15.5433 1.51706C15.318 1.4998 15.0652 1.4999 14.859 1.49998L13.141 1.49998ZM16.4044 4.83625C16.3216 4.35631 16.2802 4.11633 16.1582 3.93714C16.0551 3.78577 15.9124 3.66561 15.7457 3.58977C15.5484 3.49999 15.3049 3.49999 14.8178 3.49999H13.1822C12.6951 3.49999 12.4516 3.49999 12.2543 3.58977C12.0876 3.66561 11.9449 3.78577 11.8418 3.93714C11.7198 4.11634 11.6784 4.35631 11.5956 4.83627L11.3492 6.26435C11.2931 6.58932 11.2651 6.75183 11.204 6.87828C11.1454 6.9997 11.0928 7.0721 10.9955 7.1654C10.8941 7.26256 10.7163 7.3563 10.3607 7.54376C10.2407 7.607 10.1227 7.67326 10.0068 7.74245C9.67396 7.94107 9.50755 8.04038 9.37657 8.07636C9.25074 8.11092 9.16467 8.11915 9.03458 8.10909C8.89915 8.09861 8.74977 8.04455 8.45103 7.93643L6.92249 7.38324C6.47326 7.22066 6.24864 7.13937 6.0357 7.15504C5.85579 7.16828 5.6828 7.22994 5.53508 7.3335C5.36025 7.45605 5.2377 7.6611 4.99261 8.07119L4.22269 9.35943C3.96394 9.79238 3.83456 10.0089 3.81227 10.2306C3.79345 10.4177 3.82781 10.6064 3.91141 10.775C4.01042 10.9746 4.2078 11.1315 4.60256 11.4455L5.74264 12.3522C6.00437 12.5603 6.13523 12.6644 6.21702 12.7792C6.29637 12.8906 6.33344 12.9694 6.36869 13.1016C6.40501 13.2378 6.40097 13.4448 6.3929 13.8587C6.39198 13.9057 6.39152 13.9528 6.39152 14C6.39152 14.0472 6.39198 14.0943 6.3929 14.1413C6.40098 14.5552 6.40502 14.7622 6.36869 14.8984C6.33344 15.0306 6.29637 15.1094 6.21702 15.2208C6.13524 15.3356 6.00438 15.4397 5.74266 15.6479L4.60262 16.5545C4.20785 16.8684 4.01047 17.0254 3.91146 17.225C3.82786 17.3935 3.7935 17.5822 3.81232 17.7694C3.83461 17.9911 3.96399 18.2076 4.22274 18.6406L4.99266 19.9288C5.23775 20.3389 5.3603 20.5439 5.53513 20.6665C5.68285 20.77 5.85584 20.8317 6.03576 20.8449C6.24869 20.8606 6.47331 20.7793 6.92255 20.6167L8.45105 20.0636C8.7498 19.9554 8.89917 19.9014 9.03459 19.8909C9.16469 19.8808 9.25076 19.8891 9.37658 19.9236C9.50757 19.9596 9.67397 20.0589 10.0068 20.2575C10.1227 20.3267 10.2407 20.393 10.3607 20.4562C10.7163 20.6437 10.8941 20.7374 10.9955 20.8346C11.0928 20.9279 11.1454 21.0003 11.204 21.1217C11.2651 21.2482 11.2931 21.4106 11.3492 21.7356L11.5956 23.1637C11.6784 23.6437 11.7198 23.8836 11.8418 24.0628C11.9449 24.2142 12.0876 24.3344 12.2543 24.4102C12.4516 24.5 12.6951 24.5 13.1822 24.5H14.8178C15.3049 24.5 15.5484 24.5 15.7457 24.4102C15.9124 24.3344 16.0551 24.2142 16.1582 24.0628C16.2802 23.8836 16.3216 23.6437 16.4044 23.1637L16.6508 21.7356C16.7068 21.4106 16.7349 21.2482 16.7959 21.1217C16.8546 21.0003 16.9072 20.9279 17.0045 20.8346C17.1059 20.7374 17.2837 20.6437 17.6393 20.4562C17.7593 20.393 17.8773 20.3267 17.9932 20.2576C18.326 20.0589 18.4924 19.9596 18.6234 19.9236C18.7492 19.8891 18.8353 19.8809 18.9654 19.8909C19.1008 19.9014 19.2502 19.9555 19.5489 20.0636L21.0774 20.6168C21.5267 20.7793 21.7513 20.8606 21.9642 20.845C22.1441 20.8317 22.3171 20.7701 22.4649 20.6665C22.6397 20.5439 22.7622 20.3389 23.0073 19.9288L23.7772 18.6406C24.036 18.2076 24.1654 17.9911 24.1877 17.7694C24.2065 17.5823 24.1721 17.3936 24.0885 17.225C23.9895 17.0254 23.7921 16.8684 23.3974 16.5545L22.2573 15.6479C21.9956 15.4397 21.8647 15.3357 21.783 15.2208C21.7036 15.1094 21.6665 15.0306 21.6313 14.8984C21.595 14.7622 21.599 14.5552 21.6071 14.1414C21.608 14.0943 21.6085 14.0472 21.6085 14C21.6085 13.9528 21.608 13.9057 21.6071 13.8587C21.599 13.4448 21.595 13.2378 21.6313 13.1016C21.6665 12.9694 21.7036 12.8906 21.783 12.7792C21.8647 12.6644 21.9956 12.5603 22.2573 12.3522L23.3974 11.4455C23.7922 11.1315 23.9896 10.9746 24.0886 10.775C24.1722 10.6064 24.2065 10.4177 24.1877 10.2305C24.1654 10.0088 24.036 9.79236 23.7773 9.35942L23.0074 8.07118C22.7623 7.66108 22.6397 7.45604 22.4649 7.33348C22.3172 7.22993 22.1442 7.16826 21.9643 7.15502C21.7513 7.13935 21.5267 7.22064 21.0775 7.38323L19.5489 7.93642C19.2502 8.04454 19.1008 8.0986 18.9654 8.10908C18.8353 8.11914 18.7492 8.11091 18.6234 8.07635C18.4924 8.04038 18.326 7.94107 17.9932 7.74245C17.8773 7.67326 17.7593 7.607 17.6393 7.54376C17.2837 7.3563 17.1059 7.26256 17.0045 7.1654C16.9072 7.0721 16.8546 6.9997 16.7959 6.87828C16.7349 6.75183 16.7068 6.58933 16.6508 6.26435L16.4044 4.83625Z" fill="#898989"/>
</svg>
